	<svg
							xmlns="http://www.w3.org/2000/svg"
							viewBox="0 0 50.7 49.68"
						>
							<path
								d="M22.47,6.77c.57,0,1.23.75,2.56.75.79,0,1.37-.35,1.37-1,0-1.69-4.63-1-4.63-4C21.77,1,23,0,25,0c1.58,0,2.93.6,2.93,1.53a.63.63,0,0,1-.2.5.68.68,0,0,1-.51.19c-.61,0-1.15-.62-2.43-.62-.78,0-1.19.34-1.19.86,0,1.57,4.57.86,4.57,4C28.16,8,27,9.15,24.93,9.15c-1.65,0-3.15-.71-3.15-1.67A.66.66,0,0,1,22,7,.7.7,0,0,1,22.47,6.77Z"
								class="sc-13v0hu-0 jAyTJn"
							></path>
							<path
								d="M15.29,14.91h4.29a.81.81,0,1,1,0,1.62H16.24v2H19a.83.83,0,0,1,.6.22.76.76,0,0,1,.23.59.81.81,0,0,1-.23.59.84.84,0,0,1-.6.23H16.24v2h3.34a.83.83,0,0,1,.79.38.81.81,0,0,1,0,.87.83.83,0,0,1-.79.38H15.29a.78.78,0,0,1-.58-.23.81.81,0,0,1-.23-.59V15.72a.78.78,0,0,1,.23-.58A.75.75,0,0,1,15.29,14.91Z"
								style="transform-origin: 0px 0px 0px; opacity: 1;"
								data-svg-origin="17.48813486099243 19.351927757263184"
								transform="matrix(1,0,0,1,0,0)"
							></path>
							<path
								d="M36.21,15.09V22c0,.66-.35,1.06-.89,1.06s-.93-.35-1.32-.92l-3.41-4.92v5a.81.81,0,1,1-1.62,0V15.31c0-.69.36-1.08.94-1.08s.87.32,1.24.91l3.44,5.07V15.09a.81.81,0,0,1,.41-.7.79.79,0,0,1,.81,0A.8.8,0,0,1,36.21,15.09Z"
								style="transform-origin: 0px 0px 0px; opacity: 1;"
								data-svg-origin="32.59001350402832 18.644999980926514"
								transform="matrix(1,0,0,1,0,0)"
							></path>
							<path
								d="M12.5,30.08V37c0,.66-.35,1.06-.89,1.06s-.93-.35-1.32-.92L6.88,32.21v5a.81.81,0,1,1-1.62,0V30.3c0-.69.36-1.08.94-1.08s.87.32,1.24.91l3.44,5.07V30.08a.81.81,0,0,1,.41-.7.79.79,0,0,1,.81,0A.8.8,0,0,1,12.5,30.08Z"
								style="transform-origin: 0px 0px 0px; opacity: 1;"
								data-svg-origin="8.880016326904297 33.640000343322754"
								transform="matrix(1,0,0,1,0,0)"
							></path>
							<path
								d="M22.54,29.22h4.28a.83.83,0,0,1,.6.22.76.76,0,0,1,.23.59.76.76,0,0,1-.83.8H23.48v2h2.78a.83.83,0,0,1,.6.22.76.76,0,0,1,.23.59.81.81,0,0,1-.23.59.84.84,0,0,1-.6.23H23.48v2h3.34a.78.78,0,0,1,.6.23.8.8,0,0,1,.23.6.79.79,0,0,1-.83.8H22.54a.74.74,0,0,1-.58-.23.78.78,0,0,1-.24-.58V30a.79.79,0,0,1,.82-.78Z"
								style="transform-origin: 0px 0px 0px; opacity: 1;"
								data-svg-origin="24.685547828674316 33.65521430969238"
								transform="matrix(1,0,0,1,0,0)"
							></path>
							<path
								d="M39,29.22a.75.75,0,0,0-.53.22.76.76,0,0,0-.24.56v7.22a.82.82,0,0,0,.81.85h.07a.78.78,0,0,0,.58-.24.81.81,0,0,0,.24-.61V35.08h1.37c2.12,0,3.52-1.19,3.52-2.95s-1.39-2.91-3.49-2.91H39Zm.91,4.33V30.74h1.67a1.41,1.41,0,0,1,1.2.68,1.41,1.41,0,0,1-1.2,2.14H39.87Z"
								style="transform-origin: 0px 0px 0px; opacity: 1;"
								data-svg-origin="41.52472114562988 33.6450891494751"
								transform="matrix(1,0,0,1,0,0)"
							></path>
						</svg>